<mxfile host="app.diagrams.net" agent="Mozilla/5.0 (Windows NT 10.0; Win64; x64) AppleWebKit/537.36 (KHTML, like Gecko) Chrome/130.0.0.0 Safari/537.36" version="24.8.4">
  <diagram name="第 1 页" id="ybheiKlgZ1PPVYXB1ZRW">
    <mxGraphModel dx="1877" dy="618" grid="1" gridSize="10" guides="1" tooltips="1" connect="1" arrows="1" fold="1" page="1" pageScale="1" pageWidth="827" pageHeight="1169" math="0" shadow="0">
      <root>
        <mxCell id="0" />
        <mxCell id="1" parent="0" />
        <mxCell id="J-2XLEKzVSlw2GGMpIok-4" value="" style="edgeStyle=orthogonalEdgeStyle;rounded=0;orthogonalLoop=1;jettySize=auto;html=1;" parent="1" source="J-2XLEKzVSlw2GGMpIok-1" target="J-2XLEKzVSlw2GGMpIok-3" edge="1">
          <mxGeometry relative="1" as="geometry" />
        </mxCell>
        <mxCell id="J-2XLEKzVSlw2GGMpIok-1" value="ZwOCCBuildBody" style="rounded=0;whiteSpace=wrap;html=1;" parent="1" vertex="1">
          <mxGeometry x="-190" y="300" width="120" height="60" as="geometry" />
        </mxCell>
        <mxCell id="J-2XLEKzVSlw2GGMpIok-2" value="基于occ构建拓扑表基本流程" style="text;html=1;align=center;verticalAlign=middle;whiteSpace=wrap;rounded=0;" parent="1" vertex="1">
          <mxGeometry y="190" width="130" height="30" as="geometry" />
        </mxCell>
        <mxCell id="J-2XLEKzVSlw2GGMpIok-6" value="" style="edgeStyle=orthogonalEdgeStyle;rounded=0;orthogonalLoop=1;jettySize=auto;html=1;" parent="1" source="J-2XLEKzVSlw2GGMpIok-3" target="J-2XLEKzVSlw2GGMpIok-5" edge="1">
          <mxGeometry relative="1" as="geometry" />
        </mxCell>
        <mxCell id="J-2XLEKzVSlw2GGMpIok-3" value="ZwOCCBuildSolid" style="rounded=0;whiteSpace=wrap;html=1;" parent="1" vertex="1">
          <mxGeometry x="10" y="300" width="120" height="60" as="geometry" />
        </mxCell>
        <mxCell id="J-2XLEKzVSlw2GGMpIok-8" value="" style="edgeStyle=orthogonalEdgeStyle;rounded=0;orthogonalLoop=1;jettySize=auto;html=1;" parent="1" source="J-2XLEKzVSlw2GGMpIok-5" target="J-2XLEKzVSlw2GGMpIok-7" edge="1">
          <mxGeometry relative="1" as="geometry" />
        </mxCell>
        <mxCell id="J-2XLEKzVSlw2GGMpIok-5" value="ZwOCCBuildShell" style="rounded=0;whiteSpace=wrap;html=1;" parent="1" vertex="1">
          <mxGeometry x="210" y="300" width="120" height="60" as="geometry" />
        </mxCell>
        <mxCell id="J-2XLEKzVSlw2GGMpIok-10" value="" style="edgeStyle=orthogonalEdgeStyle;rounded=0;orthogonalLoop=1;jettySize=auto;html=1;" parent="1" source="J-2XLEKzVSlw2GGMpIok-7" target="J-2XLEKzVSlw2GGMpIok-9" edge="1">
          <mxGeometry relative="1" as="geometry" />
        </mxCell>
        <mxCell id="5p60LndkstR2eLKmkOQx-11" value="" style="edgeStyle=orthogonalEdgeStyle;rounded=0;orthogonalLoop=1;jettySize=auto;html=1;" edge="1" parent="1" source="J-2XLEKzVSlw2GGMpIok-7" target="5p60LndkstR2eLKmkOQx-10">
          <mxGeometry relative="1" as="geometry" />
        </mxCell>
        <mxCell id="J-2XLEKzVSlw2GGMpIok-7" value="ZwOCCBuildFace" style="rounded=0;whiteSpace=wrap;html=1;" parent="1" vertex="1">
          <mxGeometry x="410" y="300" width="120" height="60" as="geometry" />
        </mxCell>
        <mxCell id="J-2XLEKzVSlw2GGMpIok-12" value="" style="edgeStyle=orthogonalEdgeStyle;rounded=0;orthogonalLoop=1;jettySize=auto;html=1;" parent="1" source="J-2XLEKzVSlw2GGMpIok-9" target="J-2XLEKzVSlw2GGMpIok-11" edge="1">
          <mxGeometry relative="1" as="geometry" />
        </mxCell>
        <mxCell id="J-2XLEKzVSlw2GGMpIok-9" value="ZwOCCBuildLoop" style="rounded=0;whiteSpace=wrap;html=1;" parent="1" vertex="1">
          <mxGeometry x="870" y="300" width="120" height="60" as="geometry" />
        </mxCell>
        <mxCell id="J-2XLEKzVSlw2GGMpIok-15" value="" style="edgeStyle=orthogonalEdgeStyle;rounded=0;orthogonalLoop=1;jettySize=auto;html=1;" parent="1" source="J-2XLEKzVSlw2GGMpIok-11" target="J-2XLEKzVSlw2GGMpIok-14" edge="1">
          <mxGeometry relative="1" as="geometry" />
        </mxCell>
        <mxCell id="J-2XLEKzVSlw2GGMpIok-11" value="Cm_xlateTrmFace" style="rounded=0;whiteSpace=wrap;html=1;" parent="1" vertex="1">
          <mxGeometry x="870" y="660" width="120" height="60" as="geometry" />
        </mxCell>
        <mxCell id="J-2XLEKzVSlw2GGMpIok-13" value="Cm_xlateTrmFace关键步骤：使用管线去处理面.&lt;div&gt;主要的数据结构即为Zs_xlPipeDat&lt;/div&gt;&lt;div&gt;其中包含的主要数据是当前激活的已经准备好的面数据，只要准备好了面数据即可走一次管线流程，构造拓扑表&lt;/div&gt;" style="text;html=1;align=center;verticalAlign=middle;whiteSpace=wrap;rounded=0;" parent="1" vertex="1">
          <mxGeometry x="620" y="630" width="240" height="105" as="geometry" />
        </mxCell>
        <mxCell id="J-2XLEKzVSlw2GGMpIok-17" value="" style="edgeStyle=orthogonalEdgeStyle;rounded=0;orthogonalLoop=1;jettySize=auto;html=1;" parent="1" source="J-2XLEKzVSlw2GGMpIok-14" target="J-2XLEKzVSlw2GGMpIok-16" edge="1">
          <mxGeometry relative="1" as="geometry" />
        </mxCell>
        <mxCell id="J-2XLEKzVSlw2GGMpIok-14" value="xlConvertTrmFace" style="rounded=0;whiteSpace=wrap;html=1;" parent="1" vertex="1">
          <mxGeometry x="1070" y="660" width="120" height="60" as="geometry" />
        </mxCell>
        <mxCell id="5p60LndkstR2eLKmkOQx-4" value="" style="edgeStyle=orthogonalEdgeStyle;rounded=0;orthogonalLoop=1;jettySize=auto;html=1;" edge="1" parent="1" source="J-2XLEKzVSlw2GGMpIok-16" target="5p60LndkstR2eLKmkOQx-3">
          <mxGeometry relative="1" as="geometry" />
        </mxCell>
        <mxCell id="J-2XLEKzVSlw2GGMpIok-16" value="XlwriteTrmFaceToTt" style="rounded=0;whiteSpace=wrap;html=1;" parent="1" vertex="1">
          <mxGeometry x="1070" y="800" width="120" height="60" as="geometry" />
        </mxCell>
        <mxCell id="5p60LndkstR2eLKmkOQx-1" value="添加裁剪面到拓扑表种，同步它到edge table" style="text;html=1;align=center;verticalAlign=middle;whiteSpace=wrap;rounded=0;" vertex="1" parent="1">
          <mxGeometry x="900" y="815" width="130" height="30" as="geometry" />
        </mxCell>
        <mxCell id="5p60LndkstR2eLKmkOQx-6" value="" style="edgeStyle=orthogonalEdgeStyle;rounded=0;orthogonalLoop=1;jettySize=auto;html=1;" edge="1" parent="1" source="5p60LndkstR2eLKmkOQx-3" target="5p60LndkstR2eLKmkOQx-5">
          <mxGeometry relative="1" as="geometry" />
        </mxCell>
        <mxCell id="5p60LndkstR2eLKmkOQx-3" value="cm_xlFaceAddTt" style="rounded=0;whiteSpace=wrap;html=1;" vertex="1" parent="1">
          <mxGeometry x="1270" y="800" width="120" height="60" as="geometry" />
        </mxCell>
        <mxCell id="5p60LndkstR2eLKmkOQx-5" value="ZwAddFc2Tt" style="rounded=0;whiteSpace=wrap;html=1;" vertex="1" parent="1">
          <mxGeometry x="1470" y="800" width="120" height="60" as="geometry" />
        </mxCell>
        <mxCell id="5p60LndkstR2eLKmkOQx-7" value="把Zs_xlPipeDat数据结构转换为ZsAddFcTt,以此数据结构为基础构建拓扑表面" style="text;html=1;align=center;verticalAlign=middle;whiteSpace=wrap;rounded=0;" vertex="1" parent="1">
          <mxGeometry x="1450" y="750" width="170" height="30" as="geometry" />
        </mxCell>
        <mxCell id="5p60LndkstR2eLKmkOQx-8" value="&lt;span style=&quot;color: rgb(0, 0, 0); font-family: Helvetica; font-size: 12px; font-style: normal; font-variant-ligatures: normal; font-variant-caps: normal; font-weight: 400; letter-spacing: normal; orphans: 2; text-align: center; text-indent: 0px; text-transform: none; widows: 2; word-spacing: 0px; -webkit-text-stroke-width: 0px; white-space: normal; background-color: rgb(251, 251, 251); text-decoration-thickness: initial; text-decoration-style: initial; text-decoration-color: initial; display: inline !important; float: none;&quot;&gt;ZsAddFcTt,数据结构{&lt;/span&gt;&lt;div&gt;&lt;div style=&quot;text-align: center;&quot;&gt;VsNurbSurf* pzSurf,&lt;/div&gt;&lt;div style=&quot;text-align: center;&quot;&gt;VsTopoSurfAt *pzAt,&lt;/div&gt;&lt;div style=&quot;text-align: center;&quot;&gt;int idTtShl,&lt;/div&gt;&lt;div style=&quot;text-align: center;&quot;&gt;int IdThShp,&lt;/div&gt;&lt;div style=&quot;text-align: center;&quot;&gt;int idTtFc,&lt;/div&gt;&lt;div style=&quot;text-align: center;&quot;&gt;int numLps,&lt;/div&gt;&lt;div style=&quot;text-align: center;&quot;&gt;ZsAddLpTt&lt;/div&gt;&lt;div style=&quot;text-align: center;&quot;&gt;&lt;br&gt;&lt;/div&gt;&lt;div&gt;&lt;div style=&quot;text-align: center;&quot;&gt;&lt;br&gt;&lt;/div&gt;&lt;div&gt;&lt;span style=&quot;color: rgb(0, 0, 0); font-family: Helvetica; font-size: 12px; font-style: normal; font-variant-ligatures: normal; font-variant-caps: normal; font-weight: 400; letter-spacing: normal; orphans: 2; text-align: center; text-indent: 0px; text-transform: none; widows: 2; word-spacing: 0px; -webkit-text-stroke-width: 0px; white-space: normal; background-color: rgb(251, 251, 251); text-decoration-thickness: initial; text-decoration-style: initial; text-decoration-color: initial; display: inline !important; float: none;&quot;&gt;&lt;br&gt;&lt;/span&gt;&lt;/div&gt;&lt;/div&gt;&lt;/div&gt;" style="text;whiteSpace=wrap;html=1;" vertex="1" parent="1">
          <mxGeometry x="1480" y="590" width="210" height="130" as="geometry" />
        </mxCell>
        <mxCell id="5p60LndkstR2eLKmkOQx-9" value="如果当前是创建一个平面，那么直接在流程种创建一个面，一个loop，四条边，四个preedge，到最后的时候每条边都被创建了两次，然后需要合并，删除相同的边" style="text;html=1;align=center;verticalAlign=middle;whiteSpace=wrap;rounded=0;" vertex="1" parent="1">
          <mxGeometry x="1380" y="930" width="260" height="30" as="geometry" />
        </mxCell>
        <mxCell id="5p60LndkstR2eLKmkOQx-10" value="cm_XlTtSewEdgs" style="rounded=0;whiteSpace=wrap;html=1;" vertex="1" parent="1">
          <mxGeometry x="410" y="440" width="120" height="60" as="geometry" />
        </mxCell>
        <mxCell id="5p60LndkstR2eLKmkOQx-12" value="缝合边：处理基于的是管线种的listedge和拓扑表" style="text;html=1;align=center;verticalAlign=middle;whiteSpace=wrap;rounded=0;" vertex="1" parent="1">
          <mxGeometry x="250" y="455" width="120" height="30" as="geometry" />
        </mxCell>
      </root>
    </mxGraphModel>
  </diagram>
</mxfile>
